<?xml version="1.0" encoding="iso-8859-1"?>
<!-- Uploaded to: SVG Repo, www.svgrepo.com, Generator: SVG Repo Mixer Tools -->
<svg fill="#000000" height="800px" width="800px" version="1.1" id="Layer_1" xmlns="http://www.w3.org/2000/svg" xmlns:xlink="http://www.w3.org/1999/xlink" 
	 viewBox="0 0 512 512" xml:space="preserve">
<g>
	<g>
		<g>
			<path d="M437.02,74.981C388.668,26.628,324.379,0,256.001,0C192.104,0,130.965,23.626,83.849,66.525
				c-3.445,3.138-3.694,8.473-0.558,11.919c3.139,3.446,8.476,3.696,11.919,0.558c44.003-40.063,101.105-62.127,160.791-62.127
				c63.872,0,123.922,24.873,169.088,70.039c45.165,45.164,70.038,105.213,70.038,169.086c0,63.872-24.875,123.922-70.039,169.086
				c-45.165,45.165-105.214,70.038-169.086,70.038s-123.923-24.873-169.088-70.038c-45.166-45.165-70.038-105.214-70.038-169.086
				c0-56.988,19.279-110.061,55.752-153.483c2.997-3.567,2.533-8.89-1.034-11.887c-3.567-2.998-8.891-2.536-11.888,1.034
				C21.205,137.501,0,195.863,0,256.001c0,68.38,26.628,132.667,74.98,181.018C123.333,485.372,187.622,512,256.001,512
				s132.667-26.627,181.019-74.98C485.372,388.667,512,324.381,512,256.001C512,187.619,485.372,123.332,437.02,74.981z"/>
			<path d="M373.785,380.704c-3.387,3.202-3.538,8.541-0.337,11.928c3.202,3.387,8.541,3.537,11.928,0.337
				c18.466-17.451,33-38.027,43.202-61.158c10.566-23.96,15.924-49.468,15.924-75.812c0-103.94-84.561-188.501-188.501-188.501
				c-103.941,0-188.501,84.562-188.501,188.501s84.561,188.5,188.501,188.5c36.006,0,71.039-10.235,101.311-29.599
				c3.925-2.511,5.07-7.729,2.559-11.654c-2.51-3.925-7.73-5.071-11.654-2.56c-27.551,17.624-59.437,26.94-92.216,26.94
				c-94.635,0-171.627-76.992-171.627-171.627S161.366,84.374,256.001,84.374s171.626,76.992,171.627,171.626
				C427.627,303.604,408.506,347.892,373.785,380.704z"/>
		</g>
	</g>
</g>
</svg>